<?xml version="1.0" encoding="UTF-8" standalone="no"?>
<svg fill="#557" xmlns="http://www.w3.org/2000/svg" viewBox="-25 0 250 200" version="1.1">
<defs>
    <mask id="mask" fill="white">
        <rect x="0" y="0" width="80" height="80"/>
        <rect x="120" y="0" width="80" height="80"/>
        <rect x="0" y="120" width="80" height="80"/>
        <rect x="120" y="120" width="80" height="80"/>
    </mask>
</defs>
<g transform="rotate(15 100 100)">
    <path d="
        M 199,100 A 99, 99 0 0 1 100,199    99, 99 0 0 1  1,100 99, 99 0 0 1 100, 1 99, 99 0 0 1 199,100    Z
        M 185,100 A 85, 85 0 0 1 100,185    85, 85 0 0 1 15,100 85, 85 0 0 1 100,15 85, 85 0 0 1 185,100    Z
        " fill-rule="evenodd" style="mask:url(#mask)" fill="#567"/>
    <path d="M 0,100 C 110,90 110,90 200,100 C 90,110 90,110 0,100 M 100,0 C 110,90 110,90 100,200 C 90,110 90,110 100,0"/>
    <path d="M175,100C100,100 100,100 100,25 C100,100 100,100 25,100 C100,100 100,100 100,175 C100,100 100,100 175,100Z"/>
</g>
</svg>
